<svg width="56" height="56" viewBox="0 0 56 56" fill="none" xmlns="http://www.w3.org/2000/svg">
<circle cx="28" cy="28" r="28" fill="#333333"/>
<path fill-rule="evenodd" clip-rule="evenodd" d="M28 50C40.1503 50 50 40.1503 50 28C50 15.8497 40.1503 6 28 6C15.8497 6 6 15.8497 6 28C6 40.1503 15.8497 50 28 50ZM28 52C41.2548 52 52 41.2548 52 28C52 14.7452 41.2548 4 28 4C14.7452 4 4 14.7452 4 28C4 41.2548 14.7452 52 28 52Z" fill="white"/>
<path fill-rule="evenodd" clip-rule="evenodd" d="M28 43C36.2843 43 43 36.2843 43 28C43 19.7157 36.2843 13 28 13C19.7157 13 13 19.7157 13 28C13 36.2843 19.7157 43 28 43ZM28 45C37.3888 45 45 37.3888 45 28C45 18.6112 37.3888 11 28 11C18.6112 11 11 18.6112 11 28C11 37.3888 18.6112 45 28 45Z" fill="white"/>
<path d="M38.6064 40.021L40.0207 38.6068L44.9704 43.5565L43.5562 44.9707L38.6064 40.021Z" fill="white"/>
<path d="M16 38.6274L17.4142 40.0417L12.4645 44.9914L11.0503 43.5772L16 38.6274Z" fill="white"/>
<path d="M31 21C31 22.6569 29.6569 24 28 24V24C26.3431 24 25 22.6569 25 21V19C25 17.3431 26.3431 16 28 16V16C29.6569 16 31 17.3431 31 19V21Z" fill="white"/>
</svg>
